<?xml version="1.0" standalone="no"?>
<!DOCTYPE svg PUBLIC "-//W3C//DTD SVG 20010904//EN"
 "http://www.w3.org/TR/2001/REC-SVG-20010904/DTD/svg10.dtd">
<svg version="1.0" xmlns="http://www.w3.org/2000/svg"
 width="263.000000pt" height="192.000000pt" viewBox="0 0 263.000000 192.000000"
 preserveAspectRatio="xMidYMid meet">

<g transform="translate(0.000000,192.000000) scale(0.100000,-0.100000)"
fill="#000000" stroke="none">
<path d="M0 1624 l0 -296 23 6 c12 3 62 16 112 27 50 12 92 23 94 25 2 2 14
61 26 132 l21 127 48 -3 48 -3 -3 58 c-2 44 1 58 12 60 8 2 358 28 779 58 421
31 900 67 1065 79 l300 24 -1262 1 -1263 1 0 -296z"/>
<path d="M2534 1863 c3 -32 11 -125 16 -208 6 -82 13 -156 15 -162 2 -7 18
-13 35 -13 l30 0 0 220 0 220 -51 0 -51 0 6 -57z"/>
<path d="M2610 1253 c-11 -187 -11 -247 2 -418 l15 -200 2 418 c0 229 -1 417
-2 417 -2 0 -10 -98 -17 -217z"/>
<path d="M1 663 l-1 -663 1315 0 1315 0 0 306 0 306 -32 -7 c-18 -4 -33 -8
-34 -9 -1 0 -8 -94 -16 -209 -8 -114 -17 -210 -20 -213 -3 -2 -67 0 -143 6
-75 6 -139 9 -142 6 -3 -3 -12 -43 -20 -88 -8 -46 -17 -85 -19 -88 -3 -2 -163
22 -357 54 -194 31 -472 77 -619 102 l-267 44 -308 -74 c-169 -41 -316 -76
-327 -78 -16 -3 -23 14 -51 132 l-32 135 -86 14 c-76 13 -87 17 -87 35 0 12
13 102 30 201 16 99 30 191 29 205 0 14 -29 142 -64 285 l-64 260 0 -662z"/>
<path d="M1886 1205 c-3 -8 -4 -21 -2 -27 3 -7 7 -32 10 -55 6 -42 6 -43 -22
-43 -37 0 -62 -28 -69 -77 -6 -45 11 -115 32 -133 23 -19 63 -3 81 33 l17 32
9 -27 c10 -28 38 -39 38 -15 0 8 -9 39 -19 70 -11 30 -24 91 -31 134 -14 105
-19 123 -29 123 -5 0 -11 -7 -15 -15z m22 -209 c6 -91 -42 -145 -67 -75 -25
72 -7 132 37 127 25 -3 27 -7 30 -52z"/>
<path d="M2031 1112 c-75 -38 -53 -101 38 -110 56 -5 73 -21 50 -48 -10 -12
-24 -15 -60 -11 -26 3 -50 3 -53 0 -14 -14 20 -33 59 -33 55 0 95 30 95 70 0
34 -23 50 -74 50 -19 0 -41 3 -50 6 -25 9 -19 43 9 56 21 9 28 8 45 -7 25 -22
47 -8 28 17 -21 26 -51 29 -87 10z"/>
<path d="M1707 1039 c-11 -6 -25 -25 -32 -43 l-14 -31 -7 33 c-7 33 -34 45
-34 15 0 -21 46 -161 60 -183 18 -30 29 3 18 57 -11 54 -4 118 13 129 5 3 16
0 24 -6 23 -19 39 -1 19 21 -20 22 -22 22 -47 8z"/>
<path d="M1486 985 c-51 -51 -36 -215 20 -215 17 0 58 38 66 61 4 11 9 9 24
-9 18 -22 54 -23 54 -1 0 4 -6 6 -14 3 -18 -7 -32 18 -46 82 -6 27 -18 59 -26
72 -17 26 -55 29 -78 7z m62 -48 c15 -32 9 -94 -13 -124 -13 -16 -15 -17 -30
-2 -20 20 -29 96 -16 132 14 36 41 33 59 -6z"/>
<path d="M1035 968 c3 -13 14 -66 25 -118 11 -52 25 -110 31 -128 19 -58 34
-31 39 68 3 58 9 95 17 97 6 2 20 -24 33 -61 27 -83 49 -111 78 -102 12 4 22
11 22 16 0 5 -6 7 -14 4 -16 -6 -37 27 -56 93 -7 24 -21 50 -31 59 -23 21 -57
10 -65 -22 -7 -27 -24 -33 -24 -8 0 37 -32 124 -46 124 -10 0 -13 -7 -9 -22z"/>
<path d="M1296 929 c-37 -43 -37 -129 -1 -164 13 -14 34 -25 45 -25 41 0 83
33 93 73 8 27 -18 20 -31 -8 -7 -14 -23 -30 -37 -37 -39 -18 -65 12 -65 74 0
79 33 114 66 71 10 -15 15 -16 26 -5 11 11 9 17 -11 33 -33 27 -55 24 -85 -12z"/>
<path d="M574 868 c4 -13 15 -69 26 -126 10 -57 26 -115 35 -128 16 -25 58
-33 70 -14 3 6 -3 10 -15 10 -27 0 -44 41 -59 138 -6 41 -18 89 -26 108 -16
38 -41 48 -31 12z"/>
<path d="M914 851 c-67 -41 -46 -96 42 -107 59 -7 76 -23 53 -50 -10 -12 -24
-15 -60 -11 -51 6 -65 1 -48 -20 17 -19 79 -16 117 7 24 15 32 27 32 50 0 35
-23 50 -74 50 -46 0 -66 9 -66 29 0 39 41 53 72 24 15 -13 21 -14 31 -4 9 10
7 16 -12 32 -29 24 -48 24 -87 0z"/>
<path d="M442 845 c-91 -22 -114 -35 -108 -59 4 -12 18 -77 31 -145 14 -68 27
-127 30 -129 3 -3 10 -1 17 6 8 8 8 26 -1 68 -6 32 -8 61 -3 66 4 4 32 12 61
18 63 12 76 19 63 32 -6 6 -31 4 -72 -6 -34 -9 -63 -16 -64 -16 -5 0 -28 111
-24 114 1 2 39 12 82 22 44 11 81 25 84 32 5 15 -25 14 -96 -3z"/>
<path d="M735 806 c-14 -14 -26 -41 -30 -68 -8 -51 9 -126 31 -135 28 -10 61
6 75 38 13 32 13 32 27 11 15 -23 46 -29 57 -12 3 6 -3 10 -14 10 -20 0 -29
21 -45 101 -7 33 -43 79 -62 79 -8 0 -26 -11 -39 -24z m63 -39 c27 -55 -15
-164 -49 -130 -19 19 -17 141 1 153 21 13 33 8 48 -23z"/>
</g>
</svg>
